<svg width="189" height="28" viewBox="0 0 189 28" fill="none" xmlns="http://www.w3.org/2000/svg">
    <path
        d="M22.5354 1.68013V26.8801H19.5834L4.46337 8.08813V26.8801H0.863374V1.68013H3.81537L18.9354 20.4721V1.68013H22.5354ZM47.5382 17.4481C47.5382 17.7121 47.5142 18.0601 47.4662 18.4921H31.9862C32.2022 20.1721 32.9342 21.5281 34.1822 22.5601C35.4542 23.5681 37.0262 24.0721 38.8982 24.0721C41.1782 24.0721 43.0142 23.3041 44.4062 21.7681L46.3142 24.0001C45.4502 25.0081 44.3702 25.7761 43.0742 26.3041C41.8022 26.8321 40.3742 27.0961 38.7902 27.0961C36.7742 27.0961 34.9862 26.6881 33.4262 25.8721C31.8662 25.0321 30.6542 23.8681 29.7902 22.3801C28.9502 20.8921 28.5302 19.2121 28.5302 17.3401C28.5302 15.4921 28.9382 13.8241 29.7542 12.3361C30.5942 10.8481 31.7342 9.69613 33.1742 8.88013C34.6382 8.04013 36.2822 7.62013 38.1062 7.62013C39.9302 7.62013 41.5502 8.04013 42.9662 8.88013C44.4062 9.69613 45.5222 10.8481 46.3142 12.3361C47.1302 13.8241 47.5382 15.5281 47.5382 17.4481ZM38.1062 10.5361C36.4502 10.5361 35.0582 11.0401 33.9302 12.0481C32.8262 13.0561 32.1782 14.3761 31.9862 16.0081H44.2262C44.0342 14.4001 43.3742 13.0921 42.2462 12.0841C41.1422 11.0521 39.7622 10.5361 38.1062 10.5361ZM70.3012 17.4481C70.3012 17.7121 70.2772 18.0601 70.2292 18.4921H54.7492C54.9652 20.1721 55.6972 21.5281 56.9452 22.5601C58.2172 23.5681 59.7892 24.0721 61.6612 24.0721C63.9412 24.0721 65.7772 23.3041 67.1692 21.7681L69.0772 24.0001C68.2132 25.0081 67.1332 25.7761 65.8372 26.3041C64.5652 26.8321 63.1372 27.0961 61.5532 27.0961C59.5372 27.0961 57.7492 26.6881 56.1892 25.8721C54.6292 25.0321 53.4172 23.8681 52.5532 22.3801C51.7132 20.8921 51.2932 19.2121 51.2932 17.3401C51.2932 15.4921 51.7012 13.8241 52.5172 12.3361C53.3572 10.8481 54.4972 9.69613 55.9372 8.88013C57.4012 8.04013 59.0452 7.62013 60.8692 7.62013C62.6932 7.62013 64.3132 8.04013 65.7292 8.88013C67.1692 9.69613 68.2852 10.8481 69.0772 12.3361C69.8932 13.8241 70.3012 15.5281 70.3012 17.4481ZM60.8692 10.5361C59.2132 10.5361 57.8212 11.0401 56.6932 12.0481C55.5892 13.0561 54.9412 14.3761 54.7492 16.0081H66.9892C66.7972 14.4001 66.1372 13.0921 65.0092 12.0841C63.9052 11.0521 62.5252 10.5361 60.8692 10.5361ZM93.8202 0.168125V26.8801H90.5082V23.8561C89.7402 24.9121 88.7682 25.7161 87.5922 26.2681C86.4162 26.8201 85.1202 27.0961 83.7042 27.0961C81.8562 27.0961 80.2002 26.6881 78.7362 25.8721C77.2722 25.0561 76.1202 23.9161 75.2802 22.4521C74.4642 20.9641 74.0562 19.2601 74.0562 17.3401C74.0562 15.4201 74.4642 13.7281 75.2802 12.2641C76.1202 10.8001 77.2722 9.66013 78.7362 8.84413C80.2002 8.02813 81.8562 7.62013 83.7042 7.62013C85.0722 7.62013 86.3322 7.88413 87.4842 8.41213C88.6362 8.91613 89.5962 9.67213 90.3642 10.6801V0.168125H93.8202ZM83.9922 24.0721C85.1922 24.0721 86.2842 23.7961 87.2682 23.2441C88.2522 22.6681 89.0202 21.8761 89.5722 20.8681C90.1242 19.8361 90.4002 18.6601 90.4002 17.3401C90.4002 16.0201 90.1242 14.8561 89.5722 13.8481C89.0202 12.8161 88.2522 12.0241 87.2682 11.4721C86.2842 10.9201 85.1922 10.6441 83.9922 10.6441C82.7682 10.6441 81.6642 10.9201 80.6802 11.4721C79.7202 12.0241 78.9522 12.8161 78.3762 13.8481C77.8242 14.8561 77.5482 16.0201 77.5482 17.3401C77.5482 18.6601 77.8242 19.8361 78.3762 20.8681C78.9522 21.8761 79.7202 22.6681 80.6802 23.2441C81.6642 23.7961 82.7682 24.0721 83.9922 24.0721ZM104.571 3.98413V13.8841H117.603V16.1881H104.571V26.8801H101.907V1.68013H119.187V3.98413H104.571ZM131.976 27.0601C130.152 27.0601 128.508 26.6521 127.044 25.8361C125.58 24.9961 124.428 23.8441 123.588 22.3801C122.748 20.9161 122.328 19.2601 122.328 17.4121C122.328 15.5641 122.748 13.9081 123.588 12.4441C124.428 10.9801 125.58 9.84013 127.044 9.02413C128.508 8.20813 130.152 7.80013 131.976 7.80013C133.8 7.80013 135.444 8.20813 136.908 9.02413C138.372 9.84013 139.512 10.9801 140.328 12.4441C141.168 13.9081 141.588 15.5641 141.588 17.4121C141.588 19.2601 141.168 20.9161 140.328 22.3801C139.512 23.8441 138.372 24.9961 136.908 25.8361C135.444 26.6521 133.8 27.0601 131.976 27.0601ZM131.976 24.7921C133.32 24.7921 134.52 24.4921 135.576 23.8921C136.656 23.2681 137.496 22.3921 138.096 21.2641C138.696 20.1361 138.996 18.8521 138.996 17.4121C138.996 15.9721 138.696 14.6881 138.096 13.5601C137.496 12.4321 136.656 11.5681 135.576 10.9681C134.52 10.3441 133.32 10.0321 131.976 10.0321C130.632 10.0321 129.42 10.3441 128.34 10.9681C127.284 11.5681 126.444 12.4321 125.82 13.5601C125.22 14.6881 124.92 15.9721 124.92 17.4121C124.92 18.8521 125.22 20.1361 125.82 21.2641C126.444 22.3921 127.284 23.2681 128.34 23.8921C129.42 24.4921 130.632 24.7921 131.976 24.7921ZM155.266 27.0601C153.442 27.0601 151.798 26.6521 150.334 25.8361C148.87 24.9961 147.718 23.8441 146.878 22.3801C146.038 20.9161 145.618 19.2601 145.618 17.4121C145.618 15.5641 146.038 13.9081 146.878 12.4441C147.718 10.9801 148.87 9.84013 150.334 9.02413C151.798 8.20813 153.442 7.80013 155.266 7.80013C157.09 7.80013 158.734 8.20813 160.198 9.02413C161.662 9.84013 162.802 10.9801 163.618 12.4441C164.458 13.9081 164.878 15.5641 164.878 17.4121C164.878 19.2601 164.458 20.9161 163.618 22.3801C162.802 23.8441 161.662 24.9961 160.198 25.8361C158.734 26.6521 157.09 27.0601 155.266 27.0601ZM155.266 24.7921C156.61 24.7921 157.81 24.4921 158.866 23.8921C159.946 23.2681 160.786 22.3921 161.386 21.2641C161.986 20.1361 162.286 18.8521 162.286 17.4121C162.286 15.9721 161.986 14.6881 161.386 13.5601C160.786 12.4321 159.946 11.5681 158.866 10.9681C157.81 10.3441 156.61 10.0321 155.266 10.0321C153.922 10.0321 152.71 10.3441 151.63 10.9681C150.574 11.5681 149.734 12.4321 149.11 13.5601C148.51 14.6881 148.21 15.9721 148.21 17.4121C148.21 18.8521 148.51 20.1361 149.11 21.2641C149.734 22.3921 150.574 23.2681 151.63 23.8921C152.71 24.4921 153.922 24.7921 155.266 24.7921ZM188.096 0.168125V26.8801H185.648V23.1361C184.88 24.4081 183.86 25.3801 182.588 26.0521C181.34 26.7241 179.924 27.0601 178.34 27.0601C176.564 27.0601 174.956 26.6521 173.516 25.8361C172.076 25.0201 170.948 23.8801 170.132 22.4161C169.316 20.9521 168.908 19.2841 168.908 17.4121C168.908 15.5401 169.316 13.8721 170.132 12.4081C170.948 10.9441 172.076 9.81613 173.516 9.02413C174.956 8.20813 176.564 7.80013 178.34 7.80013C179.876 7.80013 181.256 8.12413 182.48 8.77213C183.728 9.39613 184.748 10.3201 185.54 11.5441V0.168125H188.096ZM178.556 24.7921C179.876 24.7921 181.064 24.4921 182.12 23.8921C183.2 23.2681 184.04 22.3921 184.64 21.2641C185.264 20.1361 185.576 18.8521 185.576 17.4121C185.576 15.9721 185.264 14.6881 184.64 13.5601C184.04 12.4321 183.2 11.5681 182.12 10.9681C181.064 10.3441 179.876 10.0321 178.556 10.0321C177.212 10.0321 176 10.3441 174.92 10.9681C173.864 11.5681 173.024 12.4321 172.4 13.5601C171.8 14.6881 171.5 15.9721 171.5 17.4121C171.5 18.8521 171.8 20.1361 172.4 21.2641C173.024 22.3921 173.864 23.2681 174.92 23.8921C176 24.4921 177.212 24.7921 178.556 24.7921Z"
        fill="white" />
</svg>
